PathFileType	4	(X/Y/Z)	C:/Users/beibeiliu/ov580/test_trc/capture2\sequence.20_training_dense_right.trc
DataRate	CameraRate	NumFrames	NumMarkers	Units	OrigDataRate	OrigDataStartFrame	OrigNumFrames
120	120	12	19	mm	120	1	337
Frame#	Time	ThumbCMC			ThumbMCP			ThumbIP			ThumbTip			IndexMCP			IndexPIP			IndexTip			MiddleMCP			MiddlePIP			MiddleTip			RingMCP			RingPIP			RingTip			PinkyMCP			PinkyPIP			PinkyTip			BackHand1			BackHand2			BackHand3	
		X0	Y0	Z0	X1	Y1	Z1	X2	Y2	Z2	X3	Y3	Z3	X4	Y4	Z4	X5	Y5	Z5	X6	Y6	Z6	X7	Y7	Z7	X8	Y8	Z8	X9	Y9	Z9	X10	Y10	Z10	X11	Y11	Z11	X12	Y12	Z12	X13	Y13	Z13	X14	Y14	Z14	X15	Y15	Z15	X16	Y16	Z16	X17	Y17	Z17	X18	Y18	Z18	
0	0	113.921	42.8199	16.4911	90.0772	31.7152	-0.146498	75.8361	25.5635	-22.8602	64.8233	20.8579	-40.8181	123.602	51.0756	-57.8453	118.463	46.0443	-85.539	114.156	45.7313	-106.133	152.637	51.4448	-63.9452	150.686	46.4566	-89.2608	156.126	42.3767	-117.645	171.166	46.0308	-59.2698	175.742	41.8251	-83.9726	182.2	37.7208	-110.271	190.101	38.4572	-45.7303	200.232	34.5032	-64.6864	212.655	36.6143	-82.1146	169.214	58.9734	-9.97093	167.459	65.3642	20.6207	137.6	64.0439	4.65719	
1	0.00833333	111.646	42.1881	11.7531	94.5725	30.6686	0.530326	77.6398	25.0247	-24.3935	62.6323	20.2904	-37.2877	123.645	48.9382	-57.8666	116.344	45.7505	-84.5075	117.691	44.043	-109.679	148.821	50.0526	-63.0487	150.129	44.8	-93.1425	155.616	41.7962	-119.419	168.812	45.1699	-61.5761	179.721	40.5228	-80.4322	180.656	36.7913	-109.553	189.3	37.3264	-44.7731	200.845	33.885	-65.5742	209.615	35.0578	-86.7097	168.773	57.7468	-9.94594	167.601	63.9091	20.0749	136.904	64.2162	1.22014	
2	0.0166667	111.108	42.1683	17.3094	95.2645	29.7057	-1.88496	76.9082	24.9719	-23.1874	65.4753	20.8032	-39.2547	124.348	48.0035	-58.1768	116.47	44.4742	-80.3433	119.042	43.4468	-106.022	149.326	48.6715	-67.904	149.953	43.8759	-92.2865	156.15	40.453	-120.365	171.899	44.3345	-59.6204	175.837	39.8106	-80.3452	181.486	35.1843	-107.947	189.952	37.8864	-45.7845	200.614	32.2166	-62.6611	209.79	34.569	-82.2305	170.044	57.2145	-10.855	171.09	63.973	17.4675	139.299	64.269	2.85515	
3	0.025	110.276	41.8299	14.1542	93.3853	30.0757	0.736621	77.7315	24.8606	-24.856	63.1079	20.328	-39.3533	122.682	47.5835	-56.3056	116.496	43.0167	-84.6703	120.182	42.4339	-107.799	153.677	48.1871	-65.6513	154.45	42.5896	-93.142	158.872	38.4223	-118.295	170.763	44.8688	-61.2425	177.873	39.7457	-84.3889	180.519	34.0211	-108.806	189.973	36.8229	-44.3522	199.291	31.5778	-60.837	212.8	33.7038	-85.2408	167.621	58.2602	-11.2554	169.896	61.5972	20.2881	136.072	62.5054	-0.784879	
4	0.0333333	109.288	41.8205	12.7188	94.5219	29.1637	-0.517535	77.5734	24.2843	-23.3275	64.0285	19	-40.5202	124.31	46.9955	-60.2118	117.025	43.2586	-81.5851	120.977	40.8355	-107.048	149.311	47.773	-62.3755	152.776	40.9849	-92.9236	156.116	38.0314	-116.753	170.284	42.4643	-56.0775	175.426	38.0077	-84.8398	181.293	33.4247	-110.145	191.303	34.633	-41.1601	201.261	31.1012	-64.8697	213.325	31.0829	-85.1151	168.461	56.4702	-7.76946	172.937	62.3604	20.2029	141.61	61.8623	3.1981	
5	0.0416667	110.123	39.7433	11.7391	96.4888	27.2172	-1.37378	80.4571	21.9083	-19.6868	66.646	17.3091	-38.0345	122.076	44.7861	-58.2217	121.622	40.9574	-84.4874	115.403	39.5799	-109.505	152.443	45.8858	-62.3259	155.898	40.3798	-89.2479	156.519	35.7761	-115.057	170.043	41.0867	-59.4692	179.008	36.8205	-81.1489	179.686	30.9104	-105.852	193.736	33.1801	-43.9597	199.272	29.4376	-61.362	215.941	30.7387	-85.0852	173.062	53.626	-10.1117	170.433	59.4872	17.5531	141.608	59.9238	-0.712683	
6	0.05	112.356	38.4006	13.2481	92.7347	27.878	0.932868	75.3549	22.0816	-21.2891	63.2945	16.1674	-36.2085	123.356	43.8571	-58.041	116.372	40.2489	-83.7075	120.918	38.3489	-108.218	149.706	45.2557	-63.2211	153.464	38.8601	-88.9915	157.374	33.7712	-116.52	173.998	39.8656	-58.651	179.801	34.6643	-80.6098	183.045	29.6472	-104.883	190.383	31.9635	-41.3738	203.578	26.6754	-62.1472	215.652	27.9837	-85.0682	169.304	54.4915	-7.25699	167.963	58.9472	20.128	139.221	58.6894	0.413625	
7	0.0583333	111.641	37.8271	18.233	93.5792	26.5743	1.24597	77.2098	20.8382	-19.6417	63.5523	15.843	-37.5028	121.54	43.2852	-57.558	119.552	37.931	-84.9252	118.343	37.5283	-109.669	152.171	42.2744	-64.3171	153.946	36.2437	-89.8637	160.704	31.538	-119.533	174.89	37.1679	-58.7021	181.095	32.4476	-81.2713	180.365	28.5045	-104.595	190.786	30.4948	-39.6016	199.945	25.516	-59.0122	215.813	27.2406	-81.3311	169.321	53.6066	-11.3418	169.265	58.76	22.2171	137.389	58.8862	3.71244	
8	0.0666667	114.379	36.4942	13.6941	93.9352	25.7217	2.0977	79.8193	20.373	-17.7992	64.6535	15.2309	-34.6361	123.866	41.5275	-58.4359	118.72	38.1267	-82.5523	120.622	36.6472	-104.466	153.083	41.8109	-62.4143	155.308	34.5435	-91.3355	157.665	30.5292	-113.088	171.525	37.2129	-54.4402	177.752	31.3501	-77.9808	182.707	26.6887	-106.637	192.55	29.3029	-40.4997	199.65	23.5735	-61.3363	215.927	23.3056	-78.0162	173.945	52.3357	-9.00161	173.035	56.6204	19.8356	141.396	57.13	5.22296	
9	0.075	112.332	37.6061	18.9685	93.9312	24.5799	1.90561	78.7926	20.4288	-17.3737	64.2955	15.9536	-36.1542	126.129	41.5778	-57.979	117.67	37.0405	-78.3198	119.364	34.898	-106.656	149.985	41.674	-64.7169	154.528	34.1193	-90.5055	156.334	30.6881	-113.493	172.7	36.2181	-54.0448	176.765	30.4696	-77.5319	180.968	25.4691	-104.468	194.78	27.8592	-39.8139	200.801	22.6842	-59.9662	211.777	24.1472	-80.3867	168.984	49.5444	-5.91551	173.145	54.8009	19.3506	143.63	58.2756	6.23158	
10	0.0833333	115.136	37.5735	15.8144	92.1327	26.4494	-0.0406131	76.0614	20.4548	-18.8718	65.1168	15.5448	-37.8429	124.669	42.194	-53.8343	117.555	37.0339	-82.199	122.815	35.627	-104.289	152.8	40.0778	-63.3202	157.084	34.4035	-86.2595	158.763	29.0217	-113.287	174.816	34.8421	-57.2934	178.583	29.5475	-77.9131	181.816	24.0969	-103.707	195.357	25.8697	-39.5128	200.472	21.1385	-59.6716	213.492	21.7431	-83.183	169.852	49.6543	-4.0403	172.359	56.494	23.3152	143.021	55.8432	7.03441	
11	0.0916667	114.22	39.1875	21.1138	97.6832	28.6075	1.95004	77.704	24.3347	-22.2943	63.4264	20.7932	-39.229	123.725	44.0627	-55.2165	120.915	40.0626	-81.0434	120.999	37.3349	-106.175	150.854	41.7772	-59.3039	156.016	35.3733	-87.1013	155.944	31.0474	-113.262	174.323	35.1836	-55.6754	179.477	28.5535	-76.8621	180.295	22.5232	-105.097	191.103	25.8899	-43.0049	201.808	19.4754	-61.7707	213.787	17.2529	-81.2217	173.4	48.5769	-8.01566	173.156	54.3063	22.964	140.625	56.7218	3.97988	
